<svg width="404" height="101" viewBox="0 0 404 101" fill="none" xmlns="http://www.w3.org/2000/svg">
<path d="M33.1975 21.4697C14.9844 21.4697 1.57295 33.8877 1.57295 50.9418C1.57295 68.0787 14.9844 80.7451 33.1975 80.7451C51.4107 80.7451 64.8221 67.9959 64.8221 50.9418C64.8221 33.9705 51.4107 21.4697 33.1975 21.4697ZM33.4459 35.8746C41.0623 35.8746 47.1885 42.2492 47.1885 51.0246C47.1885 59.8 41.0623 66.3402 33.4459 66.3402C25.8295 66.3402 19.2066 59.8 19.2066 51.0246C19.2066 42.2492 25.7467 35.8746 33.4459 35.8746ZM112.984 41.173L119.359 27.9271C113.067 23.8705 103.96 21.2213 95.1021 21.2213C80.6144 21.2213 71.0939 28.341 71.0939 39.5172C71.0939 59.9656 101.394 54.4189 101.394 63.1943C101.394 65.8434 99.0758 67.0852 95.4332 67.0852C89.4726 67.0852 79.7865 63.277 73.8259 58.227L67.3685 71.3074C74.6537 77.0197 85.416 80.4967 95.2677 80.4967C108.265 80.4967 119.193 74.6189 119.193 62.2836C119.193 41.3385 88.8931 46.3885 88.8931 37.8615C88.8931 35.709 90.7972 34.7156 93.6947 34.7156C98.5791 34.7156 107.023 37.7787 112.984 41.173ZM167.896 80H186.275L162.35 21.9664H144.633L119.88 80H137.596L141.073 70.7279H164.502L167.896 80ZM145.875 58.1443L152.995 39.1861L159.949 58.1443H145.875ZM232.152 41.173L238.526 27.9271C232.235 23.8705 223.128 21.2213 214.27 21.2213C199.782 21.2213 190.262 28.341 190.262 39.5172C190.262 59.9656 220.562 54.4189 220.562 63.1943C220.562 65.8434 218.244 67.0852 214.601 67.0852C208.64 67.0852 198.954 63.277 192.994 58.227L186.536 71.3074C193.822 77.0197 204.584 80.4967 214.435 80.4967C227.433 80.4967 238.361 74.6189 238.361 62.2836C238.361 41.3385 208.061 46.3885 208.061 37.8615C208.061 35.709 209.965 34.7156 212.863 34.7156C217.747 34.7156 226.191 37.7787 232.152 41.173ZM266.283 57.9456L276.548 52.9121C273.502 46.9515 267.475 43.5075 259.925 43.5075C248.533 43.5075 241.049 50.9252 241.049 62.118C241.049 73.1784 248.467 80.4636 259.792 80.4636C267.74 80.4636 273.833 77.0859 276.615 71.1252L266.216 65.8931C265.091 68.6085 263.104 69.8669 260.521 69.8669C256.944 69.8669 254.56 66.7541 254.56 62.0518C254.56 57.482 256.944 54.3692 260.521 54.3692C263.037 54.3692 265.024 55.6938 266.283 57.9456ZM294.399 49.6669V43.9711H281.02V80H294.399V62.7803C294.399 57.5482 298.836 54.6341 305.724 55.4951V43.4413C300.823 43.4413 296.915 45.6931 294.399 49.6669ZM310.448 43.9711V80H323.827V43.9711H310.448ZM355.499 43.5075C351.459 43.5075 348.015 45.1633 345.631 48.1436V43.9711H332.252V92.8485H345.631V75.8275C348.081 78.8079 351.591 80.4636 355.83 80.4636C365.765 80.4636 372.189 73.2446 372.189 62.1843C372.189 50.9252 365.566 43.5075 355.499 43.5075ZM352.121 69.8669C348.28 69.8669 345.631 66.6216 345.631 61.8531C345.631 57.0846 348.28 53.8393 352.121 53.8393C356.095 53.8393 358.678 57.0846 358.678 61.8531C358.678 66.6216 356.095 69.8669 352.121 69.8669ZM399.772 69.0721C398.182 69.6682 396.725 70.1318 395.666 70.1318C393.811 70.1318 392.619 69.0059 392.619 66.6879V54.3692H401.494V45.8256H392.619V35.8249H379.307V45.8256H374.34V54.3692H379.307V68.741C379.307 76.2249 384.473 80.6623 392.156 80.5961C395.798 80.5961 399.639 79.7351 402.156 78.278L399.772 69.0721Z" fill="black"/>
<circle cx="317" cy="34" r="7" fill="url(#paint0_linear)"/>
<defs>
<linearGradient id="paint0_linear" x1="317" y1="27" x2="317" y2="41" gradientUnits="userSpaceOnUse">
<stop stop-color="#FFE11A"/>
<stop offset="1" stop-color="#FFE11A" stop-opacity="0"/>
</linearGradient>
</defs>
</svg>
